<svg xmlns="http://www.w3.org/2000/svg" viewBox="0 0 24 24" fill="#25D366" width="28px" height="28px">
  <path d="M20.52 3.48a11.77 11.77 0 0 0-16.64 0 11.73 11.73 0 0 0-3.48 8.29 11.63 11.63 0 0 0 2.69 6.5L2 22l4.32-1.39a11.73 11.73 0 0 0 8.2 2.44 11.76 11.76 0 0 0 8.5-19.57zM12 21.5a9.36 9.36 0 0 1-5.05-1.46l-.36-.22-3.23 1.04 1.09-3.15-.23-.37A9.33 9.33 0 1 1 12 21.5zm5.33-7.83c-.29-.15-1.72-.85-1.99-.95-.27-.1-.47-.15-.67.15s-.77.95-.95 1.15c-.17.2-.34.22-.63.07a7.14 7.14 0 0 1-2.1-1.3 7.73 7.73 0 0 1-1.44-1.78c-.15-.26 0-.4.11-.54.11-.13.25-.34.38-.5a1.17 1.17 0 0 0 .17-.28.27.27 0 0 0 0-.52c-.15-.1-.67-1.6-.92-2.2-.24-.57-.49-.5-.67-.51a3.18 3.18 0 0 0-.46-.05.63.63 0 0 0-.46.21 1.97 1.97 0 0 0-.6.66 2.66 2.66 0 0 0-.78 2.08 5.47 5.47 0 0 0 2.47 3.62 10.42 10.42 0 0 0 4.69 1.54 4.41 4.41 0 0 0 2.94-1.43 3.7 3.7 0 0 0 .46-1.44 1.72 1.72 0 0 0-.28-1.28z"/>
</svg>